# xmcd
#
# Track frame offsets:
#	150
#	12767
#	25732
#	39520
#	52400
#	64115
#	81622
#	93825
#	115007
#	129680
#
# Disc length: 1948 seconds
#
# Revision: 0
# Processed by: cddbd v1.4PL0 Copyright (c) Steve Scherf et al.
# Submitted via: audiograbber 1.82.00
#
DISCID=82079a0a
DTITLE=Josh Peek - Bull Rider's Dream
DYEAR=1900
DGENRE=
TTITLE0=Done Too Wrong
TTITLE1=I Can't Love You
TTITLE2=Ugly Guy Rules
TTITLE3=Grandma's Song
TTITLE4=Comfort In Texas
TTITLE5=I Wanna Ride Again
TTITLE6=The One
TTITLE7=The Only Thing That Scares A Cowboy
TTITLE8=Rodeo Is All I Know
TTITLE9=Bull Rider's Dream
EXTD=
EXTT0=
EXTT1=
EXTT2=
EXTT3=
EXTT4=
EXTT5=
EXTT6=
EXTT7=
EXTT8=
EXTT9=
PLAYORDER=
